<svg xmlns="http://www.w3.org/2000/svg" width="1280" height="900" viewBox="0 0 1280 900" font-family="Segoe UI, Arial, sans-serif">
<defs><marker id="arr" viewBox="0 0 10 10" refX="9" refY="5" markerWidth="7" markerHeight="7" orient="auto-start-reverse"><path d="M 0 0 L 10 5 L 0 10 z" fill="#5c6a64"/></marker><marker id="arrg" viewBox="0 0 10 10" refX="9" refY="5" markerWidth="7" markerHeight="7" orient="auto-start-reverse"><path d="M 0 0 L 10 5 L 0 10 z" fill="#0f6b52"/></marker></defs>
<rect width="1280" height="900" fill="#f4f6f4" rx="6"/>
<text x="640.0" y="40" font-size="22" fill="#12181c" text-anchor="middle" font-weight="700">VelcrowAI - architecture and tech stack</text>
<rect x="24" y="66" width="1232" height="108" rx="8" fill="none" stroke="#c9d3ce" stroke-width="1.2"/>
<text x="40" y="88" font-size="12" fill="#5c6a64" text-anchor="start" font-weight="700">SURFACES</text>
<rect x="47.0" y="96" width="226" height="62" rx="6" fill="#ffffff" stroke="#12181c" stroke-width="1.5"/>
<text x="160.0" y="123.0" font-size="14.5" fill="#12181c" text-anchor="middle" font-weight="700">Storefronts + widget</text>
<text x="160.0" y="143.0" font-size="12" fill="#5c6a64" text-anchor="middle">React, Vite, Tailwind, vanilla JS</text>
<rect x="287.0" y="96" width="226" height="62" rx="6" fill="#ffffff" stroke="#a8341f" stroke-width="1.5" stroke-dasharray="5,4"/>
<text x="400.0" y="123.0" font-size="14.5" fill="#12181c" text-anchor="middle" font-weight="700">WhatsApp</text>
<text x="400.0" y="143.0" font-size="12" fill="#5c6a64" text-anchor="middle">Meta Cloud API, cloudflared</text>
<rect x="527.0" y="96" width="226" height="62" rx="6" fill="#ffffff" stroke="#a8341f" stroke-width="1.5" stroke-dasharray="5,4"/>
<text x="640.0" y="123.0" font-size="14.5" fill="#12181c" text-anchor="middle" font-weight="700">Claude Desktop</text>
<text x="640.0" y="143.0" font-size="12" fill="#5c6a64" text-anchor="middle">MCP, stdio</text>
<rect x="767.0" y="96" width="226" height="62" rx="6" fill="#ffffff" stroke="#a8341f" stroke-width="1.5" stroke-dasharray="5,4"/>
<text x="880.0" y="123.0" font-size="14.5" fill="#12181c" text-anchor="middle" font-weight="700">Any AI buyer</text>
<text x="880.0" y="143.0" font-size="12" fill="#5c6a64" text-anchor="middle">ACP 2026-04-17</text>
<rect x="1007.0" y="96" width="226" height="62" rx="6" fill="#ffffff" stroke="#12181c" stroke-width="1.5"/>
<text x="1120.0" y="123.0" font-size="14.5" fill="#12181c" text-anchor="middle" font-weight="700">Buyer app + Audit</text>
<text x="1120.0" y="143.0" font-size="12" fill="#5c6a64" text-anchor="middle">React, SSE</text>
<line x1="640.0" y1="174" x2="640.0" y2="200" stroke="#5c6a64" stroke-width="1.8" marker-end="url(#arr)"/>
<text x="652.0" y="191.0" font-size="11.5" fill="#5c6a64" text-anchor="start" font-style="italic">HTTP / webhook / stdio / ACP</text>
<rect x="24" y="200" width="1232" height="326" rx="8" fill="none" stroke="#c9d3ce" stroke-width="1.2"/>
<text x="40" y="222" font-size="12" fill="#5c6a64" text-anchor="start" font-weight="700">THE VELCROWAI LAYER  :8003  -  Python 3.14, FastAPI, Uvicorn</text>
<rect x="47.0" y="232" width="1186" height="50" rx="6" fill="#f5ecd6" stroke="#8a6410" stroke-width="1.5"/>
<text x="640.0" y="253.0" font-size="14.5" fill="#12181c" text-anchor="middle" font-weight="700">Orchestrator</text>
<text x="640.0" y="273.0" font-size="12" fill="#5c6a64" text-anchor="middle">gpt-4o-mini for intent, deterministic catalog scorer for shop, APScheduler, chainlog</text>
<rect x="47.0" y="298" width="386.0" height="62" rx="6" fill="#f5ecd6" stroke="#8a6410" stroke-width="1.5"/>
<text x="240.0" y="325.0" font-size="14.5" fill="#12181c" text-anchor="middle" font-weight="700">Shopping assistant</text>
<text x="240.0" y="345.0" font-size="12" fill="#5c6a64" text-anchor="middle">OpenAI tool calling, 9 tools, asyncio + httpx</text>
<rect x="447.0" y="298" width="386.0" height="62" rx="6" fill="#ffffff" stroke="#12181c" stroke-width="1.5"/>
<text x="640.0" y="325.0" font-size="14.5" fill="#12181c" text-anchor="middle" font-weight="700">Buyer agent</text>
<text x="640.0" y="345.0" font-size="12" fill="#5c6a64" text-anchor="middle">Python rules, trust-weighted ranking, SQLite</text>
<rect x="847.0" y="298" width="386.0" height="62" rx="6" fill="#f5ecd6" stroke="#8a6410" stroke-width="1.5"/>
<text x="1040.0" y="325.0" font-size="14.5" fill="#12181c" text-anchor="middle" font-weight="700">Growth agent</text>
<text x="1040.0" y="345.0" font-size="12" fill="#5c6a64" text-anchor="middle">OpenAI tool calling, 7 tools, APScheduler, Thompson bandit</text>
<rect x="47.0" y="376" width="586.0" height="62" rx="6" fill="#f5e2dd" stroke="#a8341f" stroke-width="1.5"/>
<text x="340.0" y="403.0" font-size="14.5" fill="#12181c" text-anchor="middle" font-weight="700">Outreach + webhook</text>
<text x="340.0" y="423.0" font-size="12" fill="#5c6a64" text-anchor="middle">FastAPI, HMAC-SHA256 signatures, OTP + link login, SQLite</text>
<rect x="647.0" y="376" width="586.0" height="62" rx="6" fill="#f5e2dd" stroke="#a8341f" stroke-width="1.5"/>
<text x="940.0" y="403.0" font-size="14.5" fill="#12181c" text-anchor="middle" font-weight="700">Trust core</text>
<text x="940.0" y="423.0" font-size="12" fill="#5c6a64" text-anchor="middle">PyJWT HS256 mandates + approvals, HMAC tokens, SHA-256 chains</text>
<rect x="47.0" y="454" width="586.0" height="56" rx="6" fill="#d9e8e1" stroke="#0f6b52" stroke-width="2.5"/>
<text x="340.0" y="478.0" font-size="14.5" fill="#12181c" text-anchor="middle" font-weight="700">wallet.py</text>
<text x="340.0" y="498.0" font-size="12" fill="#5c6a64" text-anchor="middle">Razorpay Python SDK (test mode), 76 lines, 5 checks - the only door to money</text>
<rect x="647.0" y="454" width="586.0" height="56" rx="6" fill="#ffffff" stroke="#12181c" stroke-width="1.5" stroke-dasharray="5,4"/>
<text x="940.0" y="478.0" font-size="14.5" fill="#12181c" text-anchor="middle" font-weight="700">MCP server</text>
<text x="940.0" y="498.0" font-size="12" fill="#5c6a64" text-anchor="middle">MCP Python SDK 2.x, stdio, httpx to the same endpoints</text>
<line x1="640.0" y1="282" x2="640.0" y2="298" stroke="#8a6410" stroke-width="1.8" marker-end="url(#arr)"/>
<line x1="640.0" y1="360" x2="640.0" y2="376" stroke="#5c6a64" stroke-width="1.8" marker-end="url(#arr)"/>
<line x1="340.0" y1="438" x2="340.0" y2="454" stroke="#0f6b52" stroke-width="1.8" marker-end="url(#arrg)"/>
<line x1="640.0" y1="526" x2="640.0" y2="552" stroke="#0f6b52" stroke-width="1.8" marker-end="url(#arrg)"/>
<text x="652.0" y="543.0" font-size="11.5" fill="#0f6b52" text-anchor="start" font-style="italic">tools in, callbacks back - one charge, exactly as approved</text>
<rect x="24" y="552" width="1232" height="86" rx="8" fill="none" stroke="#c9d3ce" stroke-width="1.2"/>
<text x="40" y="574" font-size="12" fill="#5c6a64" text-anchor="start" font-weight="700">EXTERNAL  -  each reachable from exactly one module, test-enforced</text>
<rect x="47.0" y="586" width="386.0" height="42" rx="6" fill="#ffffff" stroke="#7a5ea8" stroke-width="1.5" stroke-dasharray="5,4"/>
<text x="240.0" y="603.0" font-size="14.5" fill="#12181c" text-anchor="middle" font-weight="700">OpenAI API - gpt-4o-mini</text>
<text x="240.0" y="623.0" font-size="12" fill="#5c6a64" text-anchor="middle">only agent/llm.py</text>
<rect x="447.0" y="586" width="386.0" height="42" rx="6" fill="#ffffff" stroke="#7a5ea8" stroke-width="1.5" stroke-dasharray="5,4"/>
<text x="640.0" y="603.0" font-size="14.5" fill="#12181c" text-anchor="middle" font-weight="700">Meta WhatsApp Cloud API</text>
<text x="640.0" y="623.0" font-size="12" fill="#5c6a64" text-anchor="middle">only common/whatsapp.py</text>
<rect x="847.0" y="586" width="386.0" height="42" rx="6" fill="#ffffff" stroke="#7a5ea8" stroke-width="1.5" stroke-dasharray="5,4"/>
<text x="1040.0" y="603.0" font-size="14.5" fill="#12181c" text-anchor="middle" font-weight="700">Razorpay Orders API, test mode</text>
<text x="1040.0" y="623.0" font-size="12" fill="#5c6a64" text-anchor="middle">only common/wallet.py</text>
<line x1="640.0" y1="638" x2="640.0" y2="652" stroke="#5c6a64" stroke-width="1.8" marker-end="url(#arr)"/>
<rect x="24" y="652" width="1232" height="110" rx="8" fill="none" stroke="#c9d3ce" stroke-width="1.2"/>
<text x="40" y="674" font-size="12" fill="#5c6a64" text-anchor="start" font-weight="700">MERCHANT NETWORK  -  one codebase, six configs; add a merchant = 1 YAML + 1 JSON</text>
<rect x="47.0" y="682" width="186.0" height="50" rx="6" fill="#ffffff" stroke="#12181c" stroke-width="1.5"/>
<text x="140.0" y="703.0" font-size="14.5" fill="#12181c" text-anchor="middle" font-weight="700">FreshKart</text>
<text x="140.0" y="723.0" font-size="12" fill="#5c6a64" text-anchor="middle">grocery :8001</text>
<rect x="247.0" y="682" width="186.0" height="50" rx="6" fill="#ffffff" stroke="#12181c" stroke-width="1.5"/>
<text x="340.0" y="703.0" font-size="14.5" fill="#12181c" text-anchor="middle" font-weight="700">DailyMandi</text>
<text x="340.0" y="723.0" font-size="12" fill="#5c6a64" text-anchor="middle">grocery :8005</text>
<rect x="447.0" y="682" width="186.0" height="50" rx="6" fill="#ffffff" stroke="#12181c" stroke-width="1.5"/>
<text x="540.0" y="703.0" font-size="14.5" fill="#12181c" text-anchor="middle" font-weight="700">Loomcraft</text>
<text x="540.0" y="723.0" font-size="12" fill="#5c6a64" text-anchor="middle">apparel :8002</text>
<rect x="647.0" y="682" width="186.0" height="50" rx="6" fill="#ffffff" stroke="#12181c" stroke-width="1.5"/>
<text x="740.0" y="703.0" font-size="14.5" fill="#12181c" text-anchor="middle" font-weight="700">SilkRoute</text>
<text x="740.0" y="723.0" font-size="12" fill="#5c6a64" text-anchor="middle">apparel :8004</text>
<rect x="847.0" y="682" width="186.0" height="50" rx="6" fill="#ffffff" stroke="#12181c" stroke-width="1.5"/>
<text x="940.0" y="703.0" font-size="14.5" fill="#12181c" text-anchor="middle" font-weight="700">UrbanNest</text>
<text x="940.0" y="723.0" font-size="12" fill="#5c6a64" text-anchor="middle">home :8006</text>
<rect x="1047.0" y="682" width="186.0" height="50" rx="6" fill="#ffffff" stroke="#12181c" stroke-width="1.5"/>
<text x="1140.0" y="703.0" font-size="14.5" fill="#12181c" text-anchor="middle" font-weight="700">MittiCraft</text>
<text x="1140.0" y="723.0" font-size="12" fill="#5c6a64" text-anchor="middle">home :8007</text>
<text x="640.0" y="750" font-size="11.5" fill="#5c6a64" text-anchor="middle" font-style="italic">each: FastAPI + Uvicorn, SQLite, YAML config + JSON catalog, ACP adapter, manifest, SHA-256 chain</text>
<line x1="640.0" y1="762" x2="640.0" y2="788" stroke="#0f6b52" stroke-width="1.8" marker-end="url(#arrg)"/>
<text x="652.0" y="779.0" font-size="11.5" fill="#0f6b52" text-anchor="start" font-style="italic">everything lands here</text>
<rect x="24" y="788" width="1232" height="96" rx="8" fill="none" stroke="#c9d3ce" stroke-width="1.2"/>
<text x="40" y="810" font-size="12" fill="#5c6a64" text-anchor="start" font-weight="700">DATA AND PROOF</text>
<rect x="47.0" y="814" width="286.0" height="56" rx="6" fill="#d9e8e1" stroke="#0f6b52" stroke-width="2"/>
<text x="190.0" y="838.0" font-size="14.5" fill="#12181c" text-anchor="middle" font-weight="700">7 hash chains</text>
<text x="190.0" y="858.0" font-size="12" fill="#5c6a64" text-anchor="middle">hashlib SHA-256, append-only JSONL</text>
<rect x="347.0" y="814" width="286.0" height="56" rx="6" fill="#eef1ef" stroke="#8a958f" stroke-width="1.5"/>
<text x="490.0" y="838.0" font-size="14.5" fill="#12181c" text-anchor="middle" font-weight="700">SQLite stores</text>
<text x="490.0" y="858.0" font-size="12" fill="#5c6a64" text-anchor="middle">trust, whatsapp, six shops</text>
<rect x="647.0" y="814" width="286.0" height="56" rx="6" fill="#d9e8e1" stroke="#0f6b52" stroke-width="2"/>
<text x="790.0" y="838.0" font-size="14.5" fill="#12181c" text-anchor="middle" font-weight="700">Audit room</text>
<text x="790.0" y="858.0" font-size="12" fill="#5c6a64" text-anchor="middle">React + SSE: verify, tamper, disputes</text>
<rect x="947.0" y="814" width="286.0" height="56" rx="6" fill="#d9e8e1" stroke="#0f6b52" stroke-width="2"/>
<text x="1090.0" y="838.0" font-size="14.5" fill="#12181c" text-anchor="middle" font-weight="700">Tests</text>
<text x="1090.0" y="858.0" font-size="12" fill="#5c6a64" text-anchor="middle">pytest 9, 404 tests, import guards</text>
</svg>
